<svg width="89" height="50" viewBox="0 0 89 50" fill="none" xmlns="http://www.w3.org/2000/svg">
<path fill-rule="evenodd" clip-rule="evenodd" d="M11.5957 0.000152588H17.2097H29.0734H32.3503V5.68424L28.3929 13.8095H22.3473H17.2097V21.0141H11.5957V13.8095V8.12543V5.68424V0.000152588ZM26.3048 5.68424H17.2097V8.12543H25.1159L26.3048 5.68424Z" fill="white"/>
<path fill-rule="evenodd" clip-rule="evenodd" d="M32.3501 0.000152588H37.9642H49.8277H53.1047V5.68424L49.1472 13.8095H49.1244L52.6334 21.0141H46.5879L43.0789 13.8095H37.9642V21.0141H32.3501V13.8095V8.12543V5.68424V0.000152588ZM47.0592 5.68424H37.9642V8.12543H43.0789H45.8703L47.0592 5.68424Z" fill="white"/>
<path fill-rule="evenodd" clip-rule="evenodd" d="M58.2474 5.68424V15.3299H67.774V5.68424H58.2474ZM67.774 0.000152588H73.3881V5.68424V15.3299L67.774 21.0141H58.2474H52.6334V15.3299V5.68424L58.2474 0.000152588H67.774V0.000152588Z" fill="white"/>
<path fill-rule="evenodd" clip-rule="evenodd" d="M17.2096 33.9028V36.3438H20.6458H26.7363V33.9028H17.2096ZM17.2096 42.0279V49.2325H11.5957V42.0279V36.3438V33.9028L17.2096 28.2186H26.7363H32.3502V33.9028V36.3438V37.3818V42.0279V43.5484V49.2325H26.7363V42.0279H20.6458H17.2096Z" fill="#D42E12"/>
<path fill-rule="evenodd" clip-rule="evenodd" d="M41.8767 28.2186H47.4908V43.5485L41.8767 49.2326H32.3501H26.7362V43.5485V37.3818V28.2186H32.3501V37.3818V43.5485H41.8767V28.2186Z" fill="#D42E12"/>
<path fill-rule="evenodd" clip-rule="evenodd" d="M55.0611 28.2186H60.6751H62.6314H68.2454V33.9028H60.6751V37.3818V43.5485V49.2326H55.0611V37.3818V33.9028H47.4908V28.2186H55.0611Z" fill="#D42E12"/>
<path fill-rule="evenodd" clip-rule="evenodd" d="M73.8594 33.9028V43.5485H83.386V33.9028H73.8594ZM83.386 28.2186H89V33.9028V43.5485L83.386 49.2326H73.8594H68.2453V43.5485V33.9028L73.8594 28.2186H83.386Z" fill="#D42E12"/>
<path d="M5.98149 0H0.367542V49.2324H5.98149V0Z" fill="#D42E12"/>
</svg>
